<svg width="26" height="26" viewBox="0 0 26 26" fill="none" xmlns="http://www.w3.org/2000/svg">
<path d="M21.1245 3.24969H18.687V2.43719C18.687 2.22171 18.6014 2.01504 18.449 1.86267C18.2967 1.7103 18.09 1.62469 17.8745 1.62469C17.659 1.62469 17.4524 1.7103 17.3 1.86267C17.1476 2.01504 17.062 2.22171 17.062 2.43719V3.24969H8.93701V2.43719C8.93701 2.22171 8.85141 2.01504 8.69904 1.86267C8.54666 1.7103 8.34 1.62469 8.12451 1.62469C7.90902 1.62469 7.70236 1.7103 7.54999 1.86267C7.39761 2.01504 7.31201 2.22171 7.31201 2.43719V3.24969H4.87451C4.44367 3.25012 4.03059 3.42146 3.72593 3.72612C3.42128 4.03077 3.24994 4.44385 3.24951 4.87469V21.1247C3.24994 21.5555 3.42128 21.9686 3.72593 22.2733C4.03059 22.5779 4.44367 22.7493 4.87451 22.7497H21.1245C21.5554 22.7493 21.9684 22.5779 22.2731 22.2733C22.5777 21.9686 22.7491 21.5555 22.7495 21.1247V4.87469C22.7491 4.44385 22.5777 4.03077 22.2731 3.72612C21.9684 3.42146 21.5554 3.25012 21.1245 3.24969ZM21.1245 8.12469H4.87451V4.87469H7.31201V5.68719C7.31201 5.90268 7.39761 6.10935 7.54999 6.26172C7.70236 6.41409 7.90902 6.49969 8.12451 6.49969C8.34 6.49969 8.54666 6.41409 8.69904 6.26172C8.85141 6.10935 8.93701 5.90268 8.93701 5.68719V4.87469H17.062V5.68719C17.062 5.90268 17.1476 6.10935 17.3 6.26172C17.4524 6.41409 17.659 6.49969 17.8745 6.49969C18.09 6.49969 18.2967 6.41409 18.449 6.26172C18.6014 6.10935 18.687 5.90268 18.687 5.68719V4.87469H21.1245V8.12469Z" fill="url(#paint0_linear_5022_933)"/>
<defs>
<linearGradient id="paint0_linear_5022_933" x1="0.367436" y1="-6.29718" x2="91.3061" y2="-6.29718" gradientUnits="userSpaceOnUse">
<stop stop-color="#E5453D"/>
<stop offset="1" stop-color="#FF7A2E"/>
</linearGradient>
</defs>
</svg>
