<svg width="16" height="12" viewBox="0 0 16 12" fill="none" xmlns="http://www.w3.org/2000/svg">
<path d="M14.9205 2.59595C14.7775 2.47653 14.6037 2.39973 14.4191 2.37432C14.2345 2.3489 14.0465 2.37589 13.8765 2.45221L10.715 3.85736L8.87421 0.543943C8.78761 0.388039 8.6609 0.258131 8.5072 0.167684C8.35349 0.0772364 8.1784 0.029541 8.00006 0.029541C7.82172 0.029541 7.64663 0.0772364 7.49293 0.167684C7.33923 0.258131 7.21251 0.388039 7.12592 0.543943L5.2851 3.8573L2.12311 2.45196C1.95298 2.37637 1.76513 2.34977 1.5807 2.37516C1.39628 2.40054 1.2226 2.4769 1.07922 2.59565C0.935836 2.71439 0.828448 2.8708 0.769142 3.04726C0.709836 3.22373 0.700966 3.41325 0.74353 3.59448L2.33386 10.3653C2.36412 10.4964 2.42079 10.6199 2.50039 10.7284C2.58 10.8368 2.68088 10.9279 2.79687 10.996C2.91347 11.0647 3.04267 11.1092 3.17681 11.1269C3.31094 11.1446 3.44727 11.1352 3.5777 11.0992C6.47081 10.3005 9.52623 10.3002 12.4195 11.0984C12.5499 11.1343 12.6861 11.1437 12.8202 11.126C12.9543 11.1083 13.0834 11.0638 13.2 10.9952C13.3159 10.9271 13.4167 10.8361 13.4963 10.7277C13.576 10.6194 13.6326 10.4959 13.663 10.3649L15.256 3.59503C15.2994 3.41379 15.2909 3.22402 15.2316 3.04737C15.1723 2.87071 15.0645 2.71429 14.9205 2.59595Z" fill="url(#paint0_linear_4885_1608)"/>
<defs>
<linearGradient id="paint0_linear_4885_1608" x1="-1.43583" y1="-4.13524" x2="66.4943" y2="-4.13524" gradientUnits="userSpaceOnUse">
<stop stop-color="#E5453D"/>
<stop offset="1" stop-color="#FF7A2E"/>
</linearGradient>
</defs>
</svg>
