<svg width="28" height="30" viewBox="0 0 28 30" fill="none" xmlns="http://www.w3.org/2000/svg">
<path d="M19.9663 3.625C19.0325 2.8325 18.0538 2 17.0575 1.095C16.6037 0.681097 16.0646 0.371954 15.4781 0.189433C14.8917 0.00691217 14.2723 -0.0445295 13.6638 0.0387466C13.0719 0.116162 12.5042 0.322514 12.0007 0.643246C11.4973 0.963978 11.0703 1.39128 10.75 1.895C9.56254 3.84568 8.66721 5.95979 8.09252 8.17C7.81962 7.80712 7.46968 7.50924 7.06789 7.29778C6.66609 7.08632 6.22242 6.96655 5.7688 6.94706C5.31517 6.92758 4.86287 7.00887 4.44442 7.1851C4.02597 7.36133 3.65178 7.62811 3.34877 7.96625C1.22986 10.1332 0.0566251 13.0519 0.0862718 16.0825C0.0580996 19.1582 1.05975 22.1549 2.93173 24.5954C4.80371 27.036 7.43839 28.7801 10.4163 29.55C11.5835 29.8469 12.7831 29.998 13.9875 30C15.8152 30.0025 17.6255 29.6445 19.3147 28.9466C21.0039 28.2488 22.5389 27.2247 23.832 25.9329C25.125 24.6412 26.1506 23.1072 26.8502 21.4186C27.5497 19.7301 27.9094 17.9202 27.9088 16.0925C27.9088 10.375 24.2288 7.25 19.9663 3.625ZM20.2388 24.1075C19.8812 24.3827 19.5053 24.6332 19.1138 24.8575C19.4725 24.1085 19.6603 23.2892 19.6638 22.4587C19.6638 20.05 17.985 17.2537 15.9138 14.8025C15.6761 14.5244 15.3811 14.3011 15.0488 14.148C14.7166 13.9949 14.3552 13.9156 13.9894 13.9156C13.6236 13.9156 13.2622 13.9949 12.9299 14.148C12.5977 14.3011 12.3027 14.5244 12.065 14.8025C9.12502 18.25 7.28377 21.9775 9.00002 25C7.42167 24.1123 6.11028 22.8175 5.2025 21.2506C4.29472 19.6837 3.82379 17.902 3.83877 16.0912C3.8 14.3178 4.39627 12.5888 5.52002 11.2162C5.69669 11.5062 5.88627 11.7867 6.08877 12.0575C6.4232 12.509 6.88262 12.8527 7.41024 13.046C7.93786 13.2393 8.51055 13.2737 9.05752 13.145C9.61238 13.0213 10.1198 12.7401 10.5189 12.3353C10.9179 11.9304 11.1918 11.4191 11.3075 10.8625C11.7695 8.40913 12.6539 6.05458 13.9213 3.90375C13.9473 3.86104 13.9828 3.82493 14.0251 3.79825C14.0674 3.77158 14.1153 3.75506 14.165 3.75C14.2312 3.74137 14.2986 3.7473 14.3622 3.76738C14.4259 3.78745 14.4845 3.8212 14.5338 3.86625C15.5638 4.8025 16.575 5.6625 17.54 6.48C21.5263 9.865 24.1588 12.105 24.1588 16.0875C24.1639 17.6357 23.813 19.1644 23.1333 20.5554C22.4536 21.9464 21.4633 23.1626 20.2388 24.11V24.1075Z" fill="url(#paint0_linear_4749_743)"/>
<defs>
<linearGradient id="paint0_linear_4749_743" x1="-4.02652" y1="-11.25" x2="125.727" y2="-11.25" gradientUnits="userSpaceOnUse">
<stop stop-color="#E5453D"/>
<stop offset="1" stop-color="#FF7A2E"/>
</linearGradient>
</defs>
</svg>
