<svg width="26" height="26" viewBox="0 0 26 26" fill="none" xmlns="http://www.w3.org/2000/svg">
<path d="M22.3009 4.14876C22.166 4.08122 22.0149 4.05262 21.8646 4.06616C21.7143 4.0797 21.5707 4.13486 21.45 4.22543C18.5758 6.38115 16.1401 5.33726 13.3201 4.12863C10.4515 2.89926 7.20043 1.50635 3.57502 4.22543C3.57021 4.22902 3.56605 4.23311 3.56138 4.23678C3.55013 4.24561 3.53927 4.25474 3.5285 4.26413C3.51844 4.27294 3.50847 4.28181 3.49895 4.29101C3.49007 4.29957 3.48154 4.30842 3.47306 4.31737C3.4629 4.32808 3.45288 4.33884 3.44341 4.35C3.43622 4.35848 3.42942 4.36723 3.42258 4.37599C3.41316 4.38804 3.40383 4.40014 3.3952 4.41263C3.38876 4.42186 3.38286 4.43138 3.37681 4.44088C3.36897 4.4533 3.36114 4.4657 3.35399 4.47849C3.34789 4.48935 3.34234 4.50053 3.33674 4.51172C3.33084 4.52357 3.32484 4.53537 3.31953 4.54745C3.31388 4.56024 3.30886 4.57336 3.30386 4.58648C3.29964 4.59756 3.29538 4.60862 3.29166 4.61985C3.28705 4.63376 3.28313 4.64794 3.27926 4.6622C3.27619 4.67346 3.27311 4.68467 3.27053 4.69605C3.26746 4.70978 3.26493 4.72374 3.26255 4.73775C3.26037 4.75047 3.25828 4.76317 3.2567 4.77599C3.25516 4.78861 3.25407 4.8013 3.25308 4.8141C3.25199 4.8289 3.25119 4.84371 3.25084 4.85856C3.25074 4.86426 3.25 4.86977 3.25 4.87547V21.938C3.25 22.1535 3.3356 22.3601 3.48798 22.5125C3.64035 22.6649 3.84701 22.7505 4.0625 22.7505C4.27799 22.7505 4.48465 22.6649 4.63702 22.5125C4.7894 22.3601 4.875 22.1535 4.875 21.938V17.4829C7.6094 15.6382 9.96696 16.647 12.6799 17.8098C14.3317 18.5177 16.1103 19.28 18.0143 19.2799C19.4167 19.2799 20.8872 18.8663 22.425 17.713C22.5259 17.6373 22.6078 17.5392 22.6642 17.4263C22.7206 17.3135 22.75 17.1891 22.75 17.063V4.87547C22.75 4.72458 22.708 4.57668 22.6287 4.44833C22.5493 4.31998 22.4359 4.21625 22.3009 4.14876Z" fill="url(#paint0_linear_5022_621)"/>
<defs>
<linearGradient id="paint0_linear_5022_621" x1="0.367925" y1="-4.87589" x2="91.3066" y2="-4.87589" gradientUnits="userSpaceOnUse">
<stop stop-color="#E5453D"/>
<stop offset="1" stop-color="#FF7A2E"/>
</linearGradient>
</defs>
</svg>
