<svg width="26" height="26" viewBox="0 0 26 26" fill="none" xmlns="http://www.w3.org/2000/svg">
<path d="M22.6979 17.1824C22.7178 17.1443 22.7348 17.1047 22.7484 17.064C23.6744 14.8445 23.8145 12.3753 23.1456 10.0652C22.4768 7.75522 21.0391 5.74289 19.0705 4.36143C19.0343 4.33139 18.9956 4.30453 18.9548 4.28114C16.9167 2.88684 14.4543 2.25114 11.9959 2.48461C9.53756 2.71808 7.23884 3.80595 5.49962 5.55898C3.76041 7.31201 2.69076 9.61926 2.47675 12.0794C2.26274 14.5395 2.91791 16.9968 4.32829 19.0238C4.33235 19.0311 4.33573 19.0385 4.34004 19.0457C4.36415 19.0849 4.39156 19.1219 4.42196 19.1564C5.24593 20.307 6.29302 21.2799 7.50086 22.0174C8.7087 22.7548 10.0526 23.2416 11.4525 23.4488C12.8524 23.656 14.2797 23.5794 15.6494 23.2235C17.0191 22.8676 18.3031 22.2396 19.425 21.3771C19.4765 21.3455 19.5243 21.3081 19.5675 21.2658C20.9299 20.1818 22.0049 18.7795 22.6979 17.1824ZM6.24399 18.8456L6.64145 18.6057C6.87978 18.4619 7.07716 18.2592 7.21467 18.0172C7.35219 17.7751 7.42523 17.5018 7.42679 17.2235L7.44605 13.7888C7.44691 13.6355 7.49113 13.4855 7.57359 13.3563L8.99896 11.1224C9.05852 11.0291 9.13654 10.9489 9.22823 10.8868C9.31991 10.8247 9.42332 10.7819 9.53211 10.7613C9.64089 10.7406 9.75276 10.7423 9.86084 10.7664C9.96892 10.7906 10.0709 10.8365 10.1606 10.9015L11.4589 11.8421C11.7969 12.0876 12.2166 12.193 12.6304 12.1365L15.8277 11.7035C16.2199 11.6504 16.5793 11.4559 16.8382 11.1566L19.0885 8.55664C19.3624 8.24133 19.5038 7.8323 19.483 7.41515L19.4546 6.82477C20.5243 7.94089 21.2858 9.31561 21.6647 10.8144C22.0436 12.3132 22.0269 13.8846 21.6161 15.375L19.9981 13.8952C19.7695 13.687 19.4863 13.5481 19.1817 13.4947C18.8771 13.4414 18.5636 13.4757 18.2778 13.5938L15.185 14.8793C14.9258 14.987 14.699 15.16 14.5266 15.3815C14.3541 15.603 14.242 15.8653 14.2011 16.143L13.9589 17.7879C13.9003 18.1837 13.9898 18.5871 14.2104 18.9209C14.431 19.2547 14.767 19.4953 15.1541 19.5965L17.3335 20.1684L17.7385 20.5742C15.9321 21.707 13.7797 22.1554 11.6712 21.8383C9.56267 21.5212 7.6374 20.4595 6.24399 18.8456Z" fill="url(#paint0_linear_5022_574)"/>
<defs>
<linearGradient id="paint0_linear_5022_574" x1="-0.68524" y1="-5.48465" x2="97.8318" y2="-5.48465" gradientUnits="userSpaceOnUse">
<stop stop-color="#E5453D"/>
<stop offset="1" stop-color="#FF7A2E"/>
</linearGradient>
</defs>
</svg>
