<svg width="10" height="6" viewBox="0 0 10 6" fill="none" xmlns="http://www.w3.org/2000/svg">
<path d="M5.12187 5.85355L9.49687 0.853546C9.55805 0.783617 9.59972 0.694524 9.6166 0.597534C9.63347 0.500543 9.62481 0.400011 9.59169 0.30865C9.55858 0.217289 9.5025 0.139201 9.43055 0.0842624C9.35861 0.0293233 9.27402 -2.63724e-07 9.18749 -1.91225e-08L0.437494 -4.01597e-07C0.350966 1.73334e-06 0.266382 0.0293263 0.194437 0.0842658C0.122492 0.139205 0.0664165 0.217292 0.0333016 0.308652C0.000186805 0.400013 -0.00848024 0.500544 0.00839618 0.597533C0.0252726 0.694523 0.0669346 0.783616 0.128114 0.853546L4.50311 5.85355C4.54374 5.89998 4.59197 5.93681 4.64506 5.96194C4.69814 5.98707 4.75504 6.00001 4.81249 6.00001C4.86995 6.00001 4.92685 5.98707 4.97993 5.96194C5.03301 5.93681 5.08125 5.89998 5.12187 5.85355V5.85355Z" fill="white"/>
</svg>
