<svg width="52" height="40" viewBox="0 0 52 40" fill="none" xmlns="http://www.w3.org/2000/svg">
<path d="M9.35598 39.7792V37.1299C9.37134 36.9073 9.33909 36.6839 9.26138 36.4747C9.18368 36.2655 9.06229 36.0752 8.90531 35.9165C8.74833 35.7579 8.55935 35.6345 8.35096 35.5546C8.14257 35.4746 7.91955 35.44 7.69674 35.453C7.40489 35.4339 7.11327 35.4935 6.8523 35.6255C6.59133 35.7575 6.3706 35.9572 6.21313 36.2037C6.06968 35.9646 5.86439 35.7688 5.61891 35.6366C5.37342 35.5045 5.09685 35.4411 4.81833 35.453C4.57552 35.4407 4.3337 35.492 4.11683 35.6019C3.89997 35.7118 3.7156 35.8764 3.58199 36.0795V35.559H2.66406V39.7792H3.59131V37.4572C3.5716 37.3129 3.584 37.166 3.62763 37.027C3.67126 36.8881 3.74503 36.7605 3.84369 36.6533C3.94235 36.5462 4.06346 36.4622 4.19835 36.4072C4.33325 36.3523 4.47861 36.3279 4.62405 36.3356C5.23338 36.3356 5.54247 36.733 5.54247 37.4484V39.7969H6.46972V37.4567C6.45089 37.3126 6.46392 37.1661 6.50788 37.0275C6.55184 36.889 6.62566 36.7618 6.72414 36.6549C6.82263 36.548 6.94337 36.464 7.07785 36.4088C7.21233 36.3537 7.35727 36.3287 7.50245 36.3356C8.12896 36.3356 8.42971 36.733 8.42971 37.4484V39.7969L9.35647 39.7792H9.35598ZM23.0724 35.559H21.5623V34.2785H20.6351V35.559H19.7962V36.398H20.6528V38.3398C20.6528 39.32 21.0325 39.9029 22.1182 39.9029C22.524 39.9043 22.922 39.791 23.2662 39.5761L23.0013 38.7902C22.755 38.9374 22.4754 39.0193 22.1889 39.0286C21.7473 39.0286 21.58 38.746 21.58 38.3221V36.3975H23.0808L23.072 35.5585L23.0724 35.559ZM30.9036 35.453C30.4473 35.4393 30.0205 35.6768 29.7913 36.0712V35.559H28.8818V39.7792H29.8002V37.413C29.8002 36.7154 30.1004 36.3268 30.6833 36.3268C30.8795 36.3244 31.0743 36.3602 31.2573 36.4328L31.5394 35.5497C31.3296 35.4748 31.1086 35.4362 30.8859 35.4354L30.9036 35.453ZM19.0642 35.8946C18.5443 35.5855 17.9466 35.4322 17.3421 35.453C16.2741 35.453 15.5764 35.9647 15.5764 36.8037C15.5764 37.4925 16.0886 37.9164 17.0335 38.0484L17.4751 38.1102C17.978 38.1808 18.2164 38.3133 18.2164 38.5517C18.2164 38.8785 17.8808 39.0639 17.2538 39.0639C16.7496 39.0785 16.2552 38.9229 15.8502 38.6224L15.4086 39.3377C15.9435 39.7112 16.5841 39.9031 17.2361 39.8852C18.4548 39.8852 19.1613 39.3112 19.1613 38.5076C19.1613 37.7044 18.6049 37.3777 17.6865 37.2452L17.245 37.1834C16.8476 37.1304 16.5302 37.051 16.5302 36.7684C16.5302 36.4858 16.8304 36.2738 17.3333 36.2738C17.7985 36.2792 18.2546 36.4039 18.6579 36.6359L19.0642 35.8941V35.8946ZM43.6574 35.453C43.2012 35.4393 42.7743 35.6768 42.5447 36.0712V35.559H41.6356V39.7792H42.5536V37.413C42.5536 36.7154 42.8538 36.3268 43.4367 36.3268C43.6329 36.3244 43.8282 36.3602 44.0107 36.4328L44.2933 35.5497C44.0835 35.4748 43.8625 35.4362 43.6398 35.4354L43.6574 35.453ZM31.8259 37.6603C31.815 37.9569 31.8661 38.2525 31.976 38.5281C32.0858 38.8038 32.252 39.0536 32.464 39.2613C32.6759 39.4691 32.9288 39.6303 33.2067 39.7347C33.4845 39.8391 33.781 39.8843 34.0773 39.8675C34.6286 39.8955 35.1703 39.7159 35.5957 39.3642L35.1542 38.6224C34.8368 38.8644 34.4499 38.9976 34.0508 39.0021C33.7109 38.9754 33.3935 38.8215 33.162 38.5711C32.9305 38.3207 32.802 37.9922 32.802 37.6512C32.802 37.3102 32.9305 36.9818 33.162 36.7314C33.3935 36.481 33.7109 36.3271 34.0508 36.3003C34.4501 36.3048 34.8372 36.4379 35.1547 36.6801L35.5962 35.9383C35.1706 35.5866 34.6287 35.4071 34.0773 35.4354C33.781 35.4186 33.4845 35.4638 33.2067 35.5682C32.9288 35.6726 32.6759 35.8338 32.464 36.0416C32.252 36.2494 32.0858 36.4991 31.976 36.7748C31.8661 37.0505 31.815 37.3461 31.8259 37.6426V37.6603ZM40.4253 37.6603V35.559H39.5074V36.0707C39.3514 35.87 39.15 35.7093 38.9197 35.6018C38.6893 35.4943 38.4367 35.4431 38.1827 35.4526C37.5973 35.4526 37.0358 35.6851 36.6218 36.0991C36.2078 36.5131 35.9752 37.0746 35.9752 37.6601C35.9752 38.2455 36.2078 38.807 36.6218 39.221C37.0358 39.635 37.5973 39.8675 38.1827 39.8675C38.4367 39.877 38.6893 39.8258 38.9197 39.7183C39.15 39.6108 39.3514 39.4501 39.5074 39.2494V39.7616H40.4253V37.6603ZM37.0087 37.6603C37.0233 37.4119 37.1103 37.1733 37.2588 36.9737C37.4074 36.7742 37.6111 36.6224 37.8448 36.5371C38.0785 36.4518 38.332 36.4367 38.5742 36.4937C38.8164 36.5507 39.0366 36.6772 39.2078 36.8578C39.3789 37.0383 39.4936 37.265 39.5376 37.5098C39.5815 37.7547 39.553 38.0071 39.4553 38.2359C39.3577 38.4647 39.1953 38.66 38.9881 38.7977C38.7809 38.9354 38.538 39.0096 38.2892 39.0109C38.1144 39.0132 37.941 38.9793 37.7799 38.9113C37.6189 38.8433 37.4737 38.7427 37.3534 38.6158C37.2331 38.489 37.1404 38.3386 37.0811 38.1741C37.0217 38.0097 36.9971 37.8347 37.0087 37.6603ZM25.9283 35.4526C25.3448 35.4637 24.7895 35.7054 24.3837 36.1248C23.978 36.5443 23.7548 37.1073 23.763 37.6908C23.7711 38.2743 24.01 38.8309 24.4273 39.2388C24.8447 39.6467 25.4065 39.8727 25.9901 39.8675C26.6252 39.9001 27.2498 39.6955 27.7426 39.2935L27.301 38.6135C26.9527 38.8932 26.5209 39.0487 26.074 39.0551C25.7704 39.0813 25.4685 38.988 25.2327 38.7951C24.9968 38.6021 24.8456 38.3247 24.8112 38.0219H27.9457V37.6686C27.9457 36.3445 27.1244 35.4619 25.9415 35.4619L25.9283 35.453V35.4526ZM25.9283 36.2738C26.2058 36.268 26.4742 36.3727 26.6745 36.5648C26.8748 36.7569 26.9905 37.0207 26.9963 37.2982H24.7891C24.8051 37.0148 24.9314 36.7489 25.141 36.5574C25.3506 36.3659 25.6269 36.2641 25.9106 36.2738H25.9283ZM48.9325 37.6691V33.863H48.0494V36.0707C47.8934 35.87 47.692 35.7093 47.4617 35.6018C47.2313 35.4943 46.9787 35.4431 46.7247 35.4526C46.1393 35.4526 45.5779 35.6851 45.164 36.099C44.75 36.513 44.5175 37.0744 44.5175 37.6598C44.5175 38.2452 44.75 38.8066 45.164 39.2206C45.5779 39.6345 46.1393 39.8671 46.7247 39.8671C46.9787 39.8765 47.2313 39.8253 47.4617 39.7178C47.692 39.6103 47.8934 39.4496 48.0494 39.2489V39.7611H48.9325V37.6686V37.6691ZM50.4642 39.1655C50.5216 39.1648 50.5786 39.1753 50.6319 39.1964C50.6827 39.2171 50.7291 39.247 50.7688 39.2847C50.8188 39.3326 50.8559 39.3923 50.8766 39.4583C50.8973 39.5243 50.9011 39.5945 50.8874 39.6623C50.8737 39.7302 50.8432 39.7935 50.7985 39.8463C50.7538 39.8992 50.6966 39.9399 50.6319 39.9647C50.5791 39.988 50.5219 40 50.4642 40C50.3805 39.9994 50.2987 39.975 50.2283 39.9296C50.1579 39.8843 50.1019 39.8199 50.0668 39.7439C50.0447 39.6923 50.0333 39.6367 50.0333 39.5805C50.0333 39.5244 50.0447 39.4688 50.0668 39.4172C50.0893 39.3677 50.1207 39.3228 50.1595 39.2847C50.1992 39.247 50.2457 39.2171 50.2964 39.1964C50.3539 39.1735 50.4156 39.163 50.4774 39.1655H50.4642ZM50.4642 39.9112C50.507 39.9116 50.5495 39.9033 50.589 39.8867C50.6285 39.87 50.6641 39.8455 50.6938 39.8146C50.749 39.7543 50.7796 39.6755 50.7796 39.5938C50.7796 39.512 50.749 39.4333 50.6938 39.373C50.6486 39.326 50.59 39.294 50.5261 39.2813C50.4621 39.2687 50.3958 39.276 50.3361 39.3024C50.2964 39.3186 50.2604 39.3426 50.2301 39.373C50.1749 39.4333 50.1443 39.512 50.1443 39.5938C50.1443 39.6755 50.1749 39.7543 50.2301 39.8146C50.2606 39.8445 50.2964 39.8685 50.3361 39.8852C50.3803 39.9043 50.4288 39.9132 50.4774 39.9117H50.4642V39.9112ZM50.4907 39.3863C50.5319 39.3843 50.5725 39.3968 50.6055 39.4216C50.6189 39.4328 50.6294 39.4471 50.6363 39.4632C50.6431 39.4793 50.646 39.4968 50.6447 39.5143C50.6462 39.5437 50.6349 39.5727 50.6143 39.5938C50.5885 39.617 50.5557 39.6308 50.5211 39.633L50.6496 39.7792H50.548L50.4288 39.6335H50.3891V39.7792H50.3052V39.3907L50.4907 39.3858V39.3863ZM50.3935 39.4613V39.5673H50.4907C50.5078 39.5722 50.5265 39.5722 50.5436 39.5673C50.5467 39.5611 50.5484 39.5543 50.5484 39.5474C50.5484 39.5405 50.5467 39.5337 50.5436 39.5276C50.5467 39.5214 50.5484 39.5146 50.5484 39.5077C50.5484 39.5008 50.5467 39.494 50.5436 39.4878C50.5264 39.4827 50.5079 39.4827 50.4907 39.4878L50.3935 39.4613ZM45.5375 37.6691C45.5521 37.4208 45.639 37.1821 45.7876 36.9826C45.9361 36.783 46.1398 36.6312 46.3735 36.5459C46.6072 36.4606 46.8608 36.4455 47.103 36.5025C47.3451 36.5595 47.5654 36.686 47.7365 36.8666C47.9077 37.0471 48.0223 37.2738 48.0663 37.5187C48.1103 37.7635 48.0817 38.0159 47.9841 38.2447C47.8865 38.4736 47.7241 38.6689 47.5169 38.8066C47.3097 38.9443 47.0667 39.0184 46.8179 39.0198C46.6431 39.0221 46.4698 38.9881 46.3087 38.9201C46.1476 38.8521 46.0024 38.7515 45.8821 38.6247C45.7619 38.4978 45.6691 38.3474 45.6098 38.183C45.5505 38.0185 45.5259 37.8436 45.5375 37.6691ZM14.5344 37.6691V35.559H13.6159V36.0707C13.46 35.87 13.2585 35.7093 13.0282 35.6018C12.7979 35.4943 12.5453 35.4431 12.2913 35.4526C11.7058 35.4526 11.1443 35.6851 10.7304 36.0991C10.3164 36.5131 10.0838 37.0746 10.0838 37.6601C10.0838 38.2455 10.3164 38.807 10.7304 39.221C11.1443 39.635 11.7058 39.8675 12.2913 39.8675C12.5453 39.877 12.7979 39.8258 13.0282 39.7183C13.2585 39.6108 13.46 39.4501 13.6159 39.2494V39.7616H14.5344V37.6691ZM11.1173 37.6691C11.1319 37.4208 11.2189 37.1821 11.3674 36.9826C11.516 36.783 11.7196 36.6312 11.9533 36.5459C12.187 36.4606 12.4406 36.4455 12.6828 36.5025C12.9249 36.5595 13.1452 36.686 13.3163 36.8666C13.4875 37.0471 13.6021 37.2738 13.6461 37.5187C13.6901 37.7635 13.6615 38.0159 13.5639 38.2447C13.4663 38.4736 13.3039 38.6689 13.0967 38.8066C12.8895 38.9443 12.6465 39.0184 12.3978 39.0198C12.2222 39.0233 12.0479 38.9903 11.8858 38.9228C11.7236 38.8554 11.5773 38.755 11.4561 38.628C11.3349 38.501 11.2414 38.3501 11.1815 38.1851C11.1217 38.02 11.0968 37.8443 11.1084 37.6691H11.1173Z" fill="white"/>
<path d="M18.7593 3.39905H32.6651V28.3897H18.7593V3.39905Z" fill="#FF5F00"/>
<path d="M19.642 15.8968C19.6395 13.4895 20.1847 11.1132 21.2365 8.94778C22.2883 6.78239 23.8191 4.88474 25.7129 3.39854C19.1961 -1.72195 9.83918 -0.976225 4.21679 5.11224C-1.4056 11.2007 -1.4056 20.5875 4.21679 26.676C9.83918 32.7645 19.1961 33.5102 25.7124 28.3897C23.8193 26.904 22.2891 25.0071 21.2374 22.8426C20.1857 20.6781 19.6402 18.3028 19.642 15.8963V15.8968Z" fill="#EB001B"/>
<path d="M51.4267 15.8968C51.4264 18.8787 50.5871 21.8004 49.0049 24.3279C47.4226 26.8554 45.1612 28.8867 42.4791 30.1898C39.797 31.4928 36.8023 32.015 33.8375 31.6966C30.8726 31.3782 28.0572 30.2321 25.7129 28.3892C27.6051 26.9022 29.1348 25.0048 30.1867 22.8402C31.2386 20.6757 31.7852 18.3005 31.7852 15.8939C31.7852 13.4873 31.2386 11.1121 30.1867 8.94757C29.1348 6.78302 27.6051 4.88563 25.7129 3.39857C28.0572 1.55557 30.8728 0.409342 33.8377 0.0908889C36.8027 -0.227564 39.7975 0.29461 42.4797 1.59773C45.1619 2.90085 47.4234 4.93233 49.0056 7.45997C50.5879 9.98761 51.427 12.9094 51.4272 15.8915V15.8964L51.4267 15.8968ZM49.9083 25.7409V25.2282H50.1158V25.1223H49.5909V25.2282H49.8156V25.7404H49.9088L49.9083 25.7409ZM50.9283 25.7409V25.1228H50.7693L50.5839 25.5643L50.3984 25.1228H50.2571V25.7409H50.3719V25.2773L50.5436 25.6791H50.6633L50.835 25.2773V25.7453L50.9283 25.7404V25.7409Z" fill="#F79E1B"/>
</svg>
