<svg width="55" height="55" viewBox="0 0 55 55" fill="none" xmlns="http://www.w3.org/2000/svg">
<path d="M11.7006 43.2994C9.72316 41.322 11.0347 37.1705 10.0282 34.7379C8.98484 32.2162 5.15625 30.1866 5.15625 27.4999C5.15625 24.8133 8.98487 22.7838 10.0282 20.2621C11.0347 17.8295 9.72316 13.678 11.7006 11.7006C13.678 9.72316 17.8295 11.0347 20.2621 10.0282C22.7838 8.98484 24.8134 5.15625 27.5001 5.15625C30.1867 5.15625 32.2162 8.98487 34.7379 10.0282C37.1705 11.0347 41.322 9.72316 43.2994 11.7006C45.2768 13.678 43.9653 17.8295 44.9718 20.2621C46.0152 22.7838 49.8438 24.8134 49.8438 27.5001C49.8438 30.1867 46.0151 32.2162 44.9718 34.7379C43.9653 37.1705 45.2768 41.322 43.2994 43.2994C41.322 45.2768 37.1705 43.9653 34.7379 44.9718C32.2162 46.0152 30.1866 49.8438 27.4999 49.8438C24.8133 49.8438 22.7838 46.0151 20.2621 44.9718C17.8295 43.9653 13.678 45.2768 11.7006 43.2994Z" stroke="url(#paint0_linear_16_755)" stroke-width="5.5" stroke-linecap="round" stroke-linejoin="round"/>
<path d="M36.9531 22.3438L24.3489 34.375L18.0469 28.3594" stroke="url(#paint1_linear_16_755)" stroke-width="5.5" stroke-linecap="round" stroke-linejoin="round"/>
<defs>
<linearGradient id="paint0_linear_16_755" x1="-1.44851" y1="-11.6016" x2="206.953" y2="-11.6016" gradientUnits="userSpaceOnUse">
<stop stop-color="#E5453D"/>
<stop offset="1" stop-color="#FF7A2E"/>
</linearGradient>
<linearGradient id="paint1_linear_16_755" x1="15.2526" y1="17.832" x2="103.422" y2="17.832" gradientUnits="userSpaceOnUse">
<stop stop-color="#E5453D"/>
<stop offset="1" stop-color="#FF7A2E"/>
</linearGradient>
</defs>
</svg>
