<svg width="17" height="18" viewBox="0 0 17 18" fill="none" xmlns="http://www.w3.org/2000/svg">
<path d="M15.0625 0.625H1.9375C1.58953 0.625398 1.25592 0.763807 1.00986 1.00986C0.763807 1.25592 0.625398 1.58953 0.625 1.9375V6.75003C0.625 14.088 6.84512 16.5219 8.09201 16.9354C8.3566 17.0251 8.6434 17.0251 8.90799 16.9354C10.1549 16.5219 16.375 14.088 16.375 6.75003V1.9375C16.3746 1.58953 16.2362 1.25592 15.9901 1.00986C15.7441 0.763807 15.4105 0.625398 15.0625 0.625ZM7.84375 5.21875C7.84375 5.0447 7.91289 4.87778 8.03596 4.75471C8.15903 4.63164 8.32595 4.5625 8.5 4.5625C8.67405 4.5625 8.84097 4.63164 8.96404 4.75471C9.08711 4.87778 9.15625 5.0447 9.15625 5.21875V8.5C9.15625 8.67405 9.08711 8.84097 8.96404 8.96404C8.84097 9.08711 8.67405 9.15625 8.5 9.15625C8.32595 9.15625 8.15903 9.08711 8.03596 8.96404C7.91289 8.84097 7.84375 8.67405 7.84375 8.5V5.21875ZM8.5 12.4375C8.30531 12.4375 8.11499 12.3798 7.95311 12.2716C7.79123 12.1634 7.66506 12.0097 7.59056 11.8298C7.51605 11.65 7.49656 11.452 7.53454 11.2611C7.57252 11.0701 7.66627 10.8947 7.80394 10.7571C7.94161 10.6194 8.11701 10.5256 8.30796 10.4877C8.49891 10.4497 8.69683 10.4692 8.8767 10.5437C9.05657 10.6182 9.21031 10.7444 9.31848 10.9062C9.42664 11.0681 9.48438 11.2584 9.48438 11.4531C9.48438 11.7142 9.38066 11.9646 9.19606 12.1492C9.01145 12.3338 8.76107 12.4375 8.5 12.4375Z" fill="white"/>
</svg>
