<svg width="18" height="18" viewBox="0 0 18 18" fill="none" xmlns="http://www.w3.org/2000/svg">
<path d="M9 0.875C7.39303 0.875 5.82214 1.35152 4.486 2.24431C3.14985 3.1371 2.10844 4.40605 1.49348 5.8907C0.87852 7.37535 0.717618 9.00901 1.03112 10.5851C1.34463 12.1612 2.11846 13.6089 3.25476 14.7452C4.39106 15.8815 5.8388 16.6554 7.4149 16.9689C8.99099 17.2824 10.6247 17.1215 12.1093 16.5065C13.594 15.8916 14.8629 14.8502 15.7557 13.514C16.6485 12.1779 17.125 10.607 17.125 9C17.1225 6.84588 16.2657 4.7807 14.7425 3.25751C13.2193 1.73431 11.1541 0.87749 9 0.875ZM12.8696 7.57727L8.28589 11.9523C8.16935 12.0632 8.01463 12.125 7.85376 12.125C7.69289 12.125 7.53818 12.0632 7.42164 11.9523L5.13037 9.76477C5.01067 9.65011 4.94137 9.49262 4.9377 9.32689C4.93403 9.16117 4.99629 9.00077 5.11081 8.88092C5.22532 8.76107 5.38272 8.69157 5.54844 8.68769C5.71416 8.68381 5.87464 8.74587 5.99463 8.86023L7.85376 10.6357L12.0054 6.67273C12.1254 6.55837 12.2859 6.49631 12.4516 6.50019C12.6173 6.50407 12.7747 6.57357 12.8892 6.69342C13.0037 6.81327 13.066 6.97367 13.0623 7.13939C13.0586 7.30512 12.9893 7.46261 12.8696 7.57727Z" fill="url(#paint0_linear_23_1661)"/>
<defs>
<linearGradient id="paint0_linear_23_1661" x1="-1.52673" y1="-5.21875" x2="74.2555" y2="-5.21875" gradientUnits="userSpaceOnUse">
<stop stop-color="#E5453D"/>
<stop offset="1" stop-color="#FF7A2E"/>
</linearGradient>
</defs>
</svg>
