<svg width="63" height="40" viewBox="0 0 63 40" fill="none" xmlns="http://www.w3.org/2000/svg">
<g clip-path="url(#clip0_27_923)">
<path d="M58.5577 0H4.44231C1.99282 0 0 1.97384 0 4.4V35.68C0 38.1062 1.99282 40.08 4.44231 40.08H58.5577C61.007 40.08 63 38.1062 63 35.68V4.4C63 1.97384 61.007 0 58.5577 0Z" fill="white"/>
<path d="M13.5999 13.588C12.9216 13.1261 12.0363 12.8946 10.9443 12.8946H6.71631C6.38152 12.8946 6.19656 13.0604 6.16143 13.3917L4.44387 24.0701C4.42602 24.175 4.45251 24.2709 4.5231 24.3581C4.59329 24.4456 4.68157 24.489 4.7873 24.489H6.79555C7.14778 24.489 7.34138 24.3236 7.37692 23.9917L7.85249 21.1129C7.86986 20.9734 7.93181 20.86 8.03753 20.7726C8.14318 20.6854 8.27532 20.6283 8.43387 20.6022C8.59242 20.5763 8.74192 20.5632 8.88311 20.5632C9.02389 20.5632 9.19116 20.572 9.38525 20.5894C9.57885 20.6068 9.70227 20.6153 9.75517 20.6153C11.2701 20.6153 12.4592 20.1925 13.3225 19.346C14.1854 18.4999 14.6174 17.3265 14.6174 15.8257C14.6174 14.7963 14.278 14.0504 13.5999 13.5877V13.588ZM11.42 16.7944C11.3316 17.4052 11.1029 17.8064 10.733 17.9984C10.363 18.1906 9.83449 18.2861 9.14754 18.2861L8.27548 18.3124L8.7248 15.5118C8.75985 15.32 8.8743 15.224 9.06823 15.224H9.57045C10.2748 15.224 10.7859 15.3246 11.103 15.5249C11.42 15.7257 11.5257 16.1491 11.42 16.7944Z" fill="#003087"/>
<path d="M58.2178 12.8944H56.2625C56.0683 12.8944 55.9539 12.9904 55.919 13.1823L54.2013 24.0703L54.1748 24.1226C54.1748 24.2103 54.2101 24.2928 54.2807 24.3714C54.3508 24.4497 54.4392 24.489 54.5449 24.489H56.2891C56.6233 24.489 56.8084 24.3236 56.8441 23.9918L58.5616 13.287V13.261C58.5615 13.0168 58.4466 12.8946 58.2178 12.8946V12.8944Z" fill="#009CDE"/>
<path d="M34.5943 17.1088C34.5943 17.0217 34.5589 16.9387 34.4888 16.8603C34.4181 16.7818 34.3388 16.7424 34.2509 16.7424H32.2162C32.0221 16.7424 31.8636 16.8301 31.7405 17.0041L28.9395 21.0873L27.7769 17.1613C27.6884 16.8822 27.4948 16.7424 27.1955 16.7424H25.2135C25.1252 16.7424 25.0459 16.7817 24.9758 16.8603C24.9052 16.9387 24.8701 17.0218 24.8701 17.1088C24.8701 17.144 25.0419 17.6585 25.3853 18.653C25.7288 19.6477 26.0988 20.7209 26.4952 21.8725C26.8916 23.0241 27.0984 23.635 27.1162 23.7044C25.6715 25.6588 24.9494 26.7058 24.9494 26.8452C24.9494 27.0722 25.0639 27.1855 25.2929 27.1855H27.3276C27.5214 27.1855 27.6798 27.0984 27.8033 26.9238L34.5417 17.2918C34.5766 17.2572 34.5943 17.1964 34.5943 17.1087V17.1088Z" fill="#003087"/>
<path d="M53.5412 16.7424H51.5329C51.2861 16.7424 51.1368 17.0303 51.0839 17.6062C50.6254 16.9086 49.7891 16.5591 48.5733 16.5591C47.3049 16.5591 46.2258 17.0303 45.3363 17.9726C44.4466 18.9149 44.002 20.0231 44.002 21.2967C44.002 22.3263 44.3057 23.1463 44.9134 23.7568C45.5211 24.3679 46.3359 24.6729 47.358 24.6729C47.8687 24.6729 48.3884 24.568 48.9168 24.3588C49.4454 24.1495 49.859 23.8704 50.159 23.5213C50.159 23.5388 50.1411 23.6171 50.1062 23.7567C50.0706 23.8965 50.0533 24.0015 50.0533 24.0707C50.0533 24.3503 50.1675 24.4895 50.3969 24.4895H52.2203C52.5545 24.4895 52.7486 24.324 52.8013 23.9922L53.8848 17.1611C53.9022 17.0563 53.8758 16.9605 53.8056 16.8731C53.7348 16.7862 53.6469 16.7424 53.5412 16.7424ZM50.0929 21.8986C49.6436 22.3348 49.1019 22.5529 48.4678 22.5529C47.9567 22.5529 47.543 22.4135 47.2258 22.1342C46.9085 21.8555 46.75 21.4716 46.75 20.9825C46.75 20.3374 46.9702 19.7918 47.4107 19.3468C47.8506 18.9019 48.3973 18.6794 49.0491 18.6794C49.5419 18.6794 49.9516 18.8234 50.2777 19.1111C50.6034 19.3991 50.7668 19.7962 50.7668 20.3022C50.7667 20.9303 50.542 21.4626 50.0929 21.8986Z" fill="#009CDE"/>
<path d="M23.5223 16.7424H21.5141C21.2671 16.7424 21.1177 17.0303 21.0648 17.6062C20.5891 16.9086 19.7523 16.5591 18.5544 16.5591C17.286 16.5591 16.2068 17.0303 15.3173 17.9726C14.4275 18.9149 13.9829 20.0231 13.9829 21.2967C13.9829 22.3263 14.2868 23.1463 14.8946 23.7568C15.5024 24.3679 16.317 24.6729 17.3389 24.6729C17.8319 24.6729 18.3431 24.568 18.8715 24.3588C19.3999 24.1495 19.8228 23.8704 20.1399 23.5213C20.0692 23.7306 20.0341 23.9139 20.0341 24.0707C20.0341 24.3503 20.1486 24.4895 20.3777 24.4895H22.2009C22.5354 24.4895 22.7294 24.324 22.7823 23.9922L23.8657 17.1611C23.883 17.0563 23.8566 16.9605 23.7864 16.8731C23.7159 16.7862 23.628 16.7424 23.5223 16.7424ZM20.0739 21.9115C19.6246 22.3396 19.0738 22.5529 18.4224 22.5529C17.9112 22.5529 17.5016 22.4135 17.1936 22.1342C16.8851 21.8555 16.7311 21.4716 16.7311 20.9825C16.7311 20.3374 16.9512 19.7918 17.3918 19.3468C17.8319 18.9019 18.3781 18.6794 19.0301 18.6794C19.5231 18.6794 19.9327 18.8234 20.2589 19.1112C20.5846 19.3991 20.7477 19.7963 20.7477 20.3023C20.7477 20.9478 20.5231 21.4845 20.0739 21.9115Z" fill="#003087"/>
<path d="M43.6186 13.588C42.9403 13.1261 42.0552 12.8946 40.963 12.8946H36.7614C36.4089 12.8946 36.215 13.0604 36.1801 13.3917L34.4624 24.0701C34.4446 24.1751 34.471 24.271 34.5417 24.3582C34.6115 24.4455 34.7001 24.489 34.8059 24.489H36.9726C37.1839 24.489 37.3248 24.3757 37.3954 24.1488L37.8711 21.1129C37.8886 20.9734 37.9503 20.86 38.0561 20.7726C38.1618 20.6854 38.2938 20.6284 38.4525 20.6022C38.611 20.5763 38.7604 20.5632 38.9017 20.5632C39.0425 20.5632 39.2098 20.572 39.4036 20.5894C39.5974 20.6068 39.7212 20.6153 39.7736 20.6153C41.2888 20.6153 42.4776 20.1925 43.341 19.346C44.2042 18.4999 44.6358 17.3265 44.6358 15.8257C44.636 14.7964 44.2966 14.0504 43.6186 13.5878V13.588ZM40.9101 17.8936C40.5225 18.1553 39.9411 18.2861 39.1661 18.2861L38.3205 18.3124L38.7697 15.5118C38.8046 15.32 38.919 15.224 39.1131 15.224H39.5886C39.9761 15.224 40.2844 15.2415 40.5137 15.2763C40.7424 15.3115 40.963 15.4202 41.1744 15.6034C41.3858 15.7867 41.4915 16.0528 41.4915 16.4018C41.4915 17.1346 41.2974 17.6318 40.9101 17.8936Z" fill="#009CDE"/>
</g>
<defs>
<clipPath id="clip0_27_923">
<rect width="63" height="40" fill="white"/>
</clipPath>
</defs>
</svg>
