<svg width="56" height="56" viewBox="0 0 56 56" fill="none" xmlns="http://www.w3.org/2000/svg">
<path d="M34.8726 8.75C37.8392 9.54786 40.5442 11.1112 42.7165 13.2835C44.8888 15.4558 46.4521 18.1608 47.25 21.1274" stroke="url(#paint0_linear_16_754)" stroke-width="5.6" stroke-linecap="round" stroke-linejoin="round"/>
<path d="M20.2292 27.3032C22.0445 31.0144 25.0527 34.0089 28.7721 35.8073C29.0442 35.9362 29.3453 35.9921 29.6455 35.9694C29.9458 35.9467 30.235 35.8462 30.4846 35.6777L35.9612 32.0258C36.2034 31.8643 36.4821 31.7658 36.772 31.7392C37.0619 31.7125 37.3538 31.7586 37.6214 31.8733L47.867 36.2643C48.2151 36.4121 48.5056 36.6691 48.695 36.9964C48.8843 37.3238 48.9621 37.7038 48.9167 38.0792C48.5928 40.6132 47.3564 42.9423 45.439 44.6304C43.5216 46.3184 41.0546 47.2497 38.5 47.2498C30.6098 47.2498 23.0428 44.1155 17.4636 38.5363C11.8844 32.9571 8.75 25.39 8.75 17.4998C8.75013 14.9452 9.68142 12.4782 11.3695 10.5608C13.0576 8.64341 15.3866 7.40703 17.9207 7.08319C18.2961 7.03776 18.6761 7.11556 19.0034 7.30488C19.3308 7.49419 19.5877 7.78476 19.7356 8.1328L24.1304 18.3873C24.244 18.6526 24.2903 18.9418 24.2652 19.2293C24.24 19.5168 24.1442 19.7936 23.9861 20.035L20.3469 25.5956C20.1813 25.8457 20.0834 26.1346 20.0627 26.4339C20.0421 26.7332 20.0994 27.0327 20.2292 27.3032V27.3032Z" stroke="url(#paint1_linear_16_754)" stroke-width="5.6" stroke-linecap="round" stroke-linejoin="round"/>
<path d="M32.6438 17.0676C34.1196 17.5345 35.4613 18.3496 36.5559 19.4441C37.6504 20.5386 38.4654 21.8804 38.9323 23.3561" stroke="url(#paint2_linear_16_754)" stroke-width="5.6" stroke-linecap="round" stroke-linejoin="round"/>
<defs>
<linearGradient id="paint0_linear_16_754" x1="33.0432" y1="4.10846" x2="90.7657" y2="4.10846" gradientUnits="userSpaceOnUse">
<stop stop-color="#E5453D"/>
<stop offset="1" stop-color="#FF7A2E"/>
</linearGradient>
<linearGradient id="paint1_linear_16_754" x1="2.81155" y1="-7.99668" x2="190.189" y2="-7.99668" gradientUnits="userSpaceOnUse">
<stop stop-color="#E5453D"/>
<stop offset="1" stop-color="#FF7A2E"/>
</linearGradient>
<linearGradient id="paint2_linear_16_754" x1="31.7144" y1="14.7094" x2="61.041" y2="14.7094" gradientUnits="userSpaceOnUse">
<stop stop-color="#E5453D"/>
<stop offset="1" stop-color="#FF7A2E"/>
</linearGradient>
</defs>
</svg>
