<svg width="26" height="26" viewBox="0 0 26 26" fill="none" xmlns="http://www.w3.org/2000/svg">
<path d="M9.80982 17.9744C9.60538 17.9063 9.38224 17.9222 9.18949 18.0185C8.99674 18.1149 8.85016 18.2839 8.782 18.4883C8.11649 20.4849 5.94896 21.1033 4.70561 21.2945C4.89684 20.0505 5.51524 17.8834 7.51177 17.218C7.61306 17.1843 7.70672 17.1309 7.78739 17.061C7.86806 16.9911 7.93416 16.906 7.98193 16.8106C8.02969 16.7151 8.05818 16.6112 8.06576 16.5047C8.07334 16.3982 8.05986 16.2913 8.0261 16.19C7.99234 16.0887 7.93895 15.9951 7.869 15.9145C7.79904 15.8339 7.71388 15.7678 7.61839 15.7201C7.52289 15.6724 7.41894 15.644 7.31246 15.6365C7.20597 15.629 7.09906 15.6425 6.99781 15.6763C5.33621 16.2302 4.11558 17.5502 3.46772 19.4938C3.17949 20.3655 3.02027 21.2746 2.99512 22.1924C2.99513 22.4079 3.08073 22.6145 3.23311 22.7669C3.38548 22.9193 3.59213 23.0049 3.80762 23.0049C4.72539 22.9797 5.63456 22.8205 6.50626 22.5323C8.44974 21.8845 9.76975 20.6638 10.3237 19.0022C10.3918 18.7978 10.376 18.5746 10.2796 18.3819C10.1832 18.1892 10.0142 18.0426 9.80982 17.9744Z" fill="url(#paint0_linear_5022_289)"/>
<path d="M23.1167 4.24736C23.0667 3.90327 22.9069 3.58455 22.661 3.3387C22.4152 3.09285 22.0964 2.93305 21.7523 2.88311C20.6061 2.71207 17.6268 2.62787 14.7233 5.53117L13.8122 6.44226H7.59111C7.37762 6.4417 7.16614 6.48347 6.9689 6.56516C6.77165 6.64685 6.59257 6.76684 6.44199 6.91818L3.15728 10.203C2.94932 10.4109 2.8017 10.6715 2.73018 10.9568C2.65865 11.242 2.6659 11.5414 2.75114 11.8229C2.83638 12.1044 2.99642 12.3575 3.2142 12.5552C3.43198 12.7528 3.69932 12.8877 3.98773 12.9454L8.00299 13.7485L12.2513 17.9968L13.0544 22.0121C13.112 22.3006 13.2468 22.568 13.4445 22.7858C13.6422 23.0037 13.8953 23.1637 14.1769 23.249C14.4584 23.3342 14.7578 23.3414 15.0432 23.2698C15.3285 23.1982 15.589 23.0505 15.7969 22.8424L19.0817 19.5577C19.233 19.4071 19.353 19.2281 19.4347 19.0308C19.5164 18.8336 19.5581 18.6222 19.5575 18.4087V12.1875L20.4686 11.2764C23.3721 8.37294 23.2878 5.39361 23.1167 4.24736ZM7.59111 8.06726H12.1873L8.13654 12.118L4.3064 11.352L7.59111 8.06726ZM17.9325 18.4087L14.6478 21.6934L13.8818 17.8633L17.9325 13.8125L17.9325 18.4087Z" fill="url(#paint1_linear_5022_289)"/>
<defs>
<linearGradient id="paint0_linear_5022_289" x1="1.9058" y1="12.8705" x2="36.2771" y2="12.8705" gradientUnits="userSpaceOnUse">
<stop stop-color="#E5453D"/>
<stop offset="1" stop-color="#FF7A2E"/>
</linearGradient>
<linearGradient id="paint1_linear_5022_289" x1="-0.349184" y1="-4.87573" x2="95.2753" y2="-4.87573" gradientUnits="userSpaceOnUse">
<stop stop-color="#E5453D"/>
<stop offset="1" stop-color="#FF7A2E"/>
</linearGradient>
</defs>
</svg>
