<svg width="28" height="22" viewBox="0 0 28 22" fill="none" xmlns="http://www.w3.org/2000/svg">
<path d="M26.9759 5.61743C26.7077 5.39352 26.3819 5.24953 26.0358 5.20187C25.6896 5.15422 25.337 5.20483 25.0183 5.34792L19.0905 7.98258L15.639 1.76992C15.4767 1.4776 15.2391 1.23403 14.9509 1.06444C14.6627 0.894849 14.3344 0.80542 14 0.80542C13.6656 0.80542 13.3373 0.894849 13.0491 1.06444C12.761 1.23403 12.5234 1.4776 12.361 1.76992L8.90946 7.98246L2.98074 5.34746C2.66175 5.20573 2.30952 5.15586 1.96372 5.20345C1.61793 5.25105 1.29228 5.39423 1.02344 5.61687C0.754601 5.83951 0.553249 6.13277 0.44205 6.46365C0.330851 6.79452 0.314219 7.14987 0.394028 7.48968L3.3759 20.185C3.43264 20.4307 3.53888 20.6624 3.68815 20.8657C3.83741 21.069 4.02656 21.2398 4.24405 21.3676C4.46267 21.4963 4.70492 21.5797 4.95642 21.613C5.20792 21.6462 5.46354 21.6286 5.70809 21.5611C11.1327 20.0635 16.8616 20.063 22.2865 21.5595C22.5309 21.6269 22.7864 21.6445 23.0378 21.6113C23.2892 21.578 23.5313 21.4946 23.7498 21.366C23.9672 21.2383 24.1563 21.0677 24.3056 20.8645C24.4548 20.6613 24.5611 20.4299 24.618 20.1843L27.605 7.49071C27.6863 7.15089 27.6704 6.79507 27.5591 6.46384C27.4479 6.13261 27.2458 5.83932 26.9759 5.61743Z" fill="url(#paint0_linear_18_638)"/>
<defs>
<linearGradient id="paint0_linear_18_638" x1="-3.69228" y1="-7.00354" x2="123.677" y2="-7.00354" gradientUnits="userSpaceOnUse">
<stop stop-color="#E5453D"/>
<stop offset="1" stop-color="#FF7A2E"/>
</linearGradient>
</defs>
</svg>
