<svg width="63" height="40" viewBox="0 0 63 40" fill="none" xmlns="http://www.w3.org/2000/svg">
<g clip-path="url(#clip0_35_805)">
<path d="M3.23077 0H59.7692C61.5536 0 63 1.43272 63 3.2V36.8C63 38.5674 61.5536 40 59.7692 40H3.23077C1.4465 40 0 38.5674 0 36.8V3.2C0 1.43272 1.4465 0 3.23077 0Z" fill="#0E4595"/>
<path d="M23.6817 27.8984L26.3762 12.2376H30.686L27.9896 27.8984H23.6817ZM43.5598 12.5752C42.706 12.2579 41.3679 11.9174 39.6972 11.9174C35.4387 11.9174 32.4389 14.0414 32.4135 17.0857C32.3893 19.3361 34.555 20.5914 36.1896 21.3405C37.8672 22.1081 38.4311 22.5977 38.4232 23.2832C38.4126 24.3329 37.0835 24.8125 35.8449 24.8125C34.1199 24.8125 33.2035 24.5751 31.7881 23.9904L31.2327 23.7416L30.6278 27.2474C31.6344 27.6845 33.4959 28.0633 35.4286 28.0829C39.9589 28.0829 42.8997 25.9832 42.9333 22.7323C42.9494 20.9508 41.8013 19.595 39.3148 18.4773C37.8084 17.7529 36.8859 17.2693 36.8957 16.5358C36.8957 15.8849 37.6765 15.1887 39.3637 15.1887C40.7731 15.1671 41.7941 15.4715 42.5895 15.7887L42.9757 15.9695L43.5598 12.5752ZM54.6502 12.2373H51.3199C50.2883 12.2373 49.5162 12.5163 49.0631 13.5361L42.6627 27.8881H47.1883C47.1883 27.8881 47.9281 25.9582 48.0955 25.5346C48.5902 25.5346 52.9864 25.5413 53.6151 25.5413C53.744 26.0896 54.1393 27.8881 54.1393 27.8881H58.1385L54.6502 12.2369V12.2373ZM49.3664 22.3501C49.7228 21.4478 51.0836 17.9723 51.0836 17.9723C51.0581 18.0141 51.4373 17.0656 51.6549 16.4776L51.9461 17.8279C51.9461 17.8279 52.7715 21.5662 52.9439 22.3501H49.3664ZM20.023 12.2373L15.8036 22.9173L15.3539 20.7469C14.5685 18.2451 12.1212 15.5345 9.38525 14.1775L13.2433 27.8735L17.8032 27.8684L24.5881 12.2372H20.023" fill="white"/>
<path d="M11.8663 12.2368H4.91682L4.86182 12.5626C10.2683 13.8589 13.8458 16.9916 15.3311 20.7554L13.8199 13.5586C13.559 12.567 12.8025 12.2711 11.8664 12.2365" fill="#F2AE14"/>
</g>
<defs>
<clipPath id="clip0_35_805">
<rect width="63" height="40" fill="white"/>
</clipPath>
</defs>
</svg>
